PathFileType	4	(X/Y/Z)	D:\Long Term Storage\D'Arcy Smith\Coord8.trc
DataRate	CameraRate	NumFrames	NumMarkers	Units	OrigDataRate	OrigDataStartFrame	OrigNumFrames
120.00	120.00	      48	4	mm	120.00	1285	      5136
Frame#	Time	M1			M2			M3			M4			
		X1	Y1	Z1	X2	Y2	Z2	X3	Y3	Z3	X4	Y4	Z4	

1285	10.700	1091.60168	328.18118	521.78076	1559.75085	368.52609	353.62781							
1286	10.708	1091.21143	328.96036	507.30295	1558.32434	373.35574	341.60983							
1287	10.717	1090.56860	330.39481	492.67099	1556.49243	378.17511	329.90277							
1288	10.725	1089.42798	332.45700	477.79800	1555.00256	383.29837	318.82571							
1289	10.733	1088.31445	335.27664	463.31522	1553.74353	388.70831	308.40796							
1290	10.742	1086.92126	338.59637	448.60919	1552.67700	393.88937	298.56436							
1291	10.750	1085.37146	342.56729	433.95322	1551.62927	399.00610	289.46765							
1292	10.758	1083.84448	346.95239	418.83691	1551.06287	403.84952	280.93082							
1293	10.767	1082.33936	351.94983	404.44031	1549.29309	408.00363	273.33569							
1294	10.775	1081.58130	357.32489	388.05630	1550.64746	412.66534	266.04666							
1295	10.783	1079.70166	362.01764	374.09003	1547.72937	415.46539	260.35254							
1296	10.792	1079.48694	368.16055	358.58478	1550.81213	419.73517	254.01324							
1297	10.800	1077.78345	373.94199	345.45898	1548.71326	421.39645	249.62863							
1298	10.808	1076.92761	379.86203	332.30426	1549.68787	423.76440	245.32875							
1299	10.817	1075.75269	385.55380	320.08008	1549.96777	425.32941	241.98610							
1300	10.825	1075.90259	391.51059	306.62857	1550.99304	426.22327	239.44537							
1301	10.833	1075.81104	396.95538	294.27167	1552.72278	426.42316	237.37976							
1302	10.842	1075.49634	402.33911	283.81097	1553.63977	425.63531	236.43826							
1303	10.850	1075.67139	407.36639	271.53787	1555.20044	424.14551	236.07523							
1304	10.858	1075.97852	412.06677	263.12549	1556.98938	421.85489	236.68382							
1305	10.867	1076.64832	417.35181	251.26343	1559.30713	419.04480	238.32788							
1306	10.875	1076.70313	420.56781	245.90579	1561.47351	415.27478	240.37589							
1307	10.883	1076.16821	423.21460	239.46921	1564.11157	410.61667	243.83340							
1308	10.892	1076.57056	425.06613	235.20210	1567.33691	405.71579	247.97478							
1309	10.900	1076.15820	425.85260	231.75827	1572.87903	400.98935	252.39836							
1310	10.908	1075.19275	425.52542	229.34019	1573.72693	394.19492	259.31134							
1311	10.917	1074.97754	424.17029	229.18506	1577.60962	387.55432	265.29996							
1312	10.925	1074.04175	421.74860	229.74960	1581.65588	380.70230	273.15967							
1313	10.933	1073.00183	418.34839	231.79108	1587.26038	374.03632	282.40268							
1314	10.942	1071.79138	414.05331	235.21179	1588.73828	366.25928	293.77222							
1315	10.950	1070.54590	409.01239	239.86859	1593.38818	359.14563	304.70276							
1316	10.958	1068.84192	403.34436	244.80811	1595.15723	351.99725	318.93088							
1317	10.967	1067.89514	397.05005	250.95848	1601.09692	346.57721	333.45273							
1318	10.975	1065.79785	389.68414	261.71976	1605.86609	341.56244	348.72208							
1319	10.983	1064.76392	382.95660	271.23364	1609.33167	337.25897	365.50961							
1320	10.992	1063.40149	376.18414	281.52118	1613.12976	334.16782	383.16315							
1321	11.000	1062.71484	369.25684	290.70187	1616.50232	331.80850	401.35587							
1322	11.008	1061.34729	362.47385	303.49362	1619.83813	330.86676	421.19016							
1323	11.017	1060.25610	355.85364	316.09091	1623.11743	331.03342	438.72427							
1324	11.025	1059.26904	349.34372	329.28296	1626.92725	331.78549	455.47491							
1325	11.033	1057.43945	343.11484	344.38446	1628.81311	333.11829	471.65784							
1326	11.042	1057.23108	337.29758	358.27838	1630.50366	334.80307	486.11121							
1327	11.050	1056.47156	331.98026	373.14597	1632.52905	336.65176	498.41199							
1328	11.058	1057.14453	327.44016	386.81912	1633.59265	338.79279	508.90668							
1329	11.067	1055.78943	322.80359	402.81628	1633.79956	340.47906	517.97656							
1330	11.075	1055.38806	319.39917	421.33569	1633.41138	341.91882	525.28436							
1331	11.083	1055.57605	316.19144	436.56430	1632.83142	343.02576	530.93396							
1332	11.092	1056.48926	313.22638	450.18530	1631.64526	343.70358	535.04950							
